<?xml version="1.0" encoding="UTF-8"?>
<!DOCTYPE svg PUBLIC "-//W3C//DTD SVG 1.1//EN" "http://www.w3.org/Graphics/SVG/1.1/DTD/svg11.dtd">
<!-- Creator: CorelDRAW -->
<svg xmlns="http://www.w3.org/2000/svg" xml:space="preserve" width="79.3559mm" height="86.611mm" version="1.1" style="shape-rendering:geometricPrecision; text-rendering:geometricPrecision; image-rendering:optimizeQuality; fill-rule:evenodd; clip-rule:evenodd"
viewBox="0 0 2451.77 2675.92"
 xmlns:xlink="http://www.w3.org/1999/xlink"
 xmlns:xodm="http://www.corel.com/coreldraw/odm/2003">
 <defs>
  <style type="text/css">
   <![CDATA[
    .fil0 {fill:black;fill-rule:nonzero}
   ]]>
  </style>
 </defs>
 <g id="Layer_x0020_1">
  <metadata id="CorelCorpID_0Corel-Layer"/>
  <path class="fil0" d="M1085 2376.56c4.12,6.55 2.95,15.42 -0.85,18.69l-354.65 279.6c-3.59,2.22 -5.7,1.05 -9.82,-3.91l-102.73 -154.89c-4.43,-6.55 -3.27,-15.42 0.85,-18.37l117.83 -92.91c18.58,-12.99 227.74,-183.4 240.09,-187.83 2.43,0.32 4.75,2.11 6.55,4.75l102.73 154.87zm-256.99 -278.43c-13.1,-23.43 -29.98,-43.29 -49.84,-59.65 0,0 -323.51,-259.95 -323.51,-259.95 -85.63,-63.66 -152.25,66.62 -87,129.98l177.81 184.03c11.3,11.62 10.98,30.62 -0.85,41.81 -11.62,11.51 -30.3,10.88 -41.81,-0.63l-177.81 -184.03c-45.4,-46.88 -55.22,-120.47 -26.72,-176.33l-179.81 -440.71c-18.48,-48.25 -72.43,-66.62 -104.21,-26.72 -13.1,17.53 -17.53,41.6 -11.83,64.72l158.16 638.36c9.82,39.17 31.78,73.91 62.3,97.35l327.95 253.19c5.07,1.68 46.56,67.26 51.95,74.23l286.13 -225.84 -60.91 -109.8zm1504.99 -765.37l-179.81 440.71c28.51,55.75 18.69,129.13 -26.71,176.32 0,0 -177.81,184.03 -177.81,184.03 -27.35,27.55 -69.26,-13.41 -42.76,-41.28l177.81 -184.03c30.83,-31.78 35.27,-85.53 10.14,-119.31 0,0 0,-0.32 -0.32,-0.32 -22.7,-31.68 -66.95,-35.58 -96.71,-10.35l-323.51 259.95c-43.08,30.51 -83.09,125.01 -110.66,169.46l286.13 225.84c4.02,-4.85 47.3,-72.96 51.95,-74.23l328.27 -253.19c30.3,-23.43 52.26,-58.18 61.98,-97.34l158.16 -638.36c20.06,-83.63 -80.56,-124.28 -116.14,-37.9l0 -0.01zm-617.02 1071.99l-210.11 -165.87 -26.72 -21.11c-3.8,-2.32 -7.28,0 -9.82,3.9l-102.73 154.89c-4.43,6.55 -3.27,15.42 0.63,18.69 3.27,0.95 353.93,282.21 357.92,280.43 1.16,0 4.12,-0.85 6.55,-4.75l102.73 -154.89c4.43,-6.55 3.27,-15.41 -0.85,-18.37l-117.61 -92.91zm-555.59 -2132.56l162.91 0c9.19,0 17.85,-4.75 22.8,-12.46 7.6,1.16 2.53,-171.47 3.9,-177.17 0.22,-14.25 -12.46,-27.13 -26.71,-26.72l-162.9 0.01c-14.57,-0.53 -26.82,12.78 -26.72,26.71l0 163.23c0,14.25 12.46,26.5 26.72,26.4zm-282.44 -132.08c16.37,11.2 16.37,36.85 0,48.03 -44.23,31.15 -58.07,90.28 -35.26,139.79l232.39 -72.11c-0.32,-3.27 -0.63,-6.87 -0.63,-10.13l-0.1 -163.23c0,-3.58 0.32,-7.07 0.63,-10.67l-232.07 -71.8c-23.34,49.31 -9.5,108.11 35.05,140.11zm763.26 187.83l3.9 -11.3c17.21,-47.2 1.48,-98.83 -39.48,-128.5 -13.2,-10.56 -16.58,-31.15 -4.12,-43.92 0,-0.32 0,-0.32 0.32,-0.63 0,-0.32 0.63,-0.32 0.63,-0.63 46.25,-31.78 62.82,-91.86 38.43,-142.96l-232.07 71.8c1.05,10.56 1.05,173.26 0,184.03l232.39 72.11zm-1220.65 108.01l1642.04 0c14.25,0 25.23,-10.67 25.23,-24.6l0 -192.91c0,-13.62 -11.3,-24.91 -25.23,-24.91l-374.2 0c24.6,43.08 29.25,96.29 12.78,143.06 -5.17,15.63 -12.25,32.63 -26.72,41.6 -14.57,10.03 -32.52,12.57 -49.52,7.07l-244 -75.7c-16.05,13.83 -36.53,21.75 -57.86,21.96l-162.6 0.01c-21.22,-0.22 -41.92,-8.13 -57.86,-21.96l-244.54 76.02c-22.48,6.97 -47.93,-0.95 -61.98,-19.85 -10.67,-14.57 -15.42,-34 -19.53,-51.31 -9.3,-40.86 -1.58,-84.26 18.68,-120.79l-374.48 0.01c-13.62,0 -24.92,11.3 -24.92,24.92l0 192.9c-0.21,13.83 10.77,24.5 24.7,24.5l-0.01 -0.01zm115.72 1058.26c0,32.1 26.08,58.18 58.18,58.18l511.95 0 0 -1057.09 -570.15 0 0.02 998.91zm629.49 42.76l152.25 0 0 -1041.69 -152.25 0 0 1041.69zm723.58 15.42c32.1,0 57.86,-26.08 57.86,-58.18l0 -998.92 -569.84 0 0 1057.09 511.97 0.01z"/>
 </g>
</svg>
